<svg width="32" height="32" viewBox="0 0 32 32" fill="none" xmlns="http://www.w3.org/2000/svg">
<path d="M30.7491 15.9336C30.7491 10.456 27.7266 5.37529 22.8904 2.80334C18.5414 0.490478 13.3272 0.490478 8.97812 2.80334C4.14188 5.37529 1.11945 10.456 1.11945 15.9336C1.11945 21.4112 4.14187 26.492 8.97811 29.0639C13.3272 31.3768 18.5414 31.3768 22.8904 29.0639C27.7266 26.492 30.7491 21.4112 30.7491 15.9336Z" fill="url(#paint0_linear_859_67804)"/>
<path d="M28.4619 15.9042C28.4619 11.2657 25.9025 6.96337 21.8072 4.78543C18.1244 2.8269 13.709 2.8269 10.0263 4.78543C5.93092 6.96337 3.37152 11.2657 3.37152 15.9042C3.37152 20.5426 5.93092 24.845 10.0263 27.0229C13.709 28.9815 18.1244 28.9815 21.8072 27.0229C25.9025 24.845 28.4619 20.5426 28.4619 15.9042Z" fill="url(#paint1_linear_859_67804)"/>
<g filter="url(#filter0_f_859_67804)">
<path d="M28.4619 15.9042C28.4619 11.2657 25.9025 6.96337 21.8072 4.78543C18.1244 2.8269 13.709 2.8269 10.0263 4.78543C5.93092 6.96337 3.37152 11.2657 3.37152 15.9042C3.37152 20.5426 5.93092 24.845 10.0263 27.0229C13.709 28.9815 18.1244 28.9815 21.8072 27.0229C25.9025 24.845 28.4619 20.5426 28.4619 15.9042Z" stroke="url(#paint2_linear_859_67804)" stroke-width="0.118519"/>
</g>
<g opacity="0.5">
<mask id="mask0_859_67804" style="mask-type:alpha" maskUnits="userSpaceOnUse" x="4" y="4" width="24" height="24">
<path d="M27.5491 15.9268C27.5491 11.6528 25.1899 7.69783 21.4155 5.69239C18.0253 3.89105 13.9618 3.89105 10.5716 5.69239C6.79718 7.69783 4.43799 11.6528 4.43799 15.9268C4.43799 20.2009 6.79717 24.1558 10.5716 26.1613C13.9618 27.9626 18.0253 27.9626 21.4155 26.1613C25.1899 24.1558 27.5491 20.2009 27.5491 15.9268Z" fill="#A6D3DE"/>
</mask>
<g mask="url(#mask0_859_67804)">
<path d="M27.5491 15.9268C27.5491 11.6528 25.1899 7.69783 21.4155 5.69239C18.0253 3.89105 13.9618 3.89105 10.5716 5.69239C6.79718 7.69783 4.43799 11.6528 4.43799 15.9268C4.43799 20.2009 6.79717 24.1558 10.5716 26.1613C13.9618 27.9626 18.0253 27.9626 21.4155 26.1613C25.1899 24.1558 27.5491 20.2009 27.5491 15.9268Z" fill="url(#paint3_radial_859_67804)"/>
<path opacity="0.5" d="M14.0303 27.6286L13.6441 4.68246C13.6219 3.3688 14.6808 2.29199 15.9946 2.29199C17.3085 2.29199 18.3673 3.3688 18.3452 4.68246L17.9589 27.6286C17.9409 28.7006 17.0667 29.5601 15.9946 29.5601C14.9225 29.5601 14.0484 28.7006 14.0303 27.6286Z" fill="url(#paint4_linear_859_67804)"/>
<path opacity="0.5" d="M12.9959 27.6801L0.899859 7.95518C0.216574 6.84095 0.589165 5.40135 1.72705 4.7591C2.86494 4.11685 4.32653 4.5212 4.97194 5.65681L16.3975 25.7601C16.9241 26.6867 16.6018 27.85 15.6734 28.374C14.745 28.898 13.5534 28.5892 12.9959 27.6801Z" fill="url(#paint5_linear_859_67804)"/>
<path opacity="0.5" d="M14.5508 25.7605L25.9764 5.65717C26.6218 4.52156 28.0834 4.11721 29.2213 4.75946C30.3591 5.4017 30.7317 6.84131 30.0484 7.95554L17.9524 27.6804C17.3949 28.5896 16.2033 28.8984 15.2749 28.3744C14.3465 27.8503 14.0242 26.6871 14.5508 25.7605Z" fill="url(#paint6_linear_859_67804)"/>
<rect x="4.43805" y="14.3682" width="23.1111" height="14.6729" rx="7.33643" fill="url(#paint7_linear_859_67804)"/>
<g filter="url(#filter1_i_859_67804)">
<path d="M27.5491 15.9268C27.5491 11.6528 25.1899 7.69783 21.4155 5.69239C18.0253 3.89105 13.9618 3.89105 10.5716 5.69239C6.79718 7.69783 4.43799 11.6528 4.43799 15.9268C4.43799 20.2009 6.79717 24.1558 10.5716 26.1613C13.9618 27.9626 18.0253 27.9626 21.4155 26.1613C25.1899 24.1558 27.5491 20.2009 27.5491 15.9268Z" fill="#6052B4" fill-opacity="0.01"/>
</g>
</g>
</g>
<g filter="url(#filter2_d_859_67804)">
<path d="M7.51953 17.9796H9.38806C9.43087 18.3568 9.62992 18.6633 9.98522 18.8991C10.3448 19.1306 10.7836 19.2463 11.3015 19.2463C11.8152 19.2463 12.2326 19.137 12.5537 18.9184C12.879 18.6955 13.0417 18.4126 13.0417 18.0696C13.0417 17.7696 12.9218 17.5274 12.6821 17.3431C12.4424 17.1587 12.0421 17.0044 11.4813 16.8801L10.2742 16.6165C8.57473 16.2521 7.72501 15.3883 7.72501 14.0252C7.72501 13.1764 8.05462 12.4905 8.71385 11.9676C9.37736 11.4446 10.2292 11.1831 11.2694 11.1831C12.3396 11.1831 13.1936 11.4382 13.8314 11.9483C14.4693 12.4541 14.7967 13.1293 14.8139 13.9737H12.9967C12.9667 13.5836 12.7934 13.2771 12.4766 13.0542C12.1641 12.827 11.7639 12.7134 11.2759 12.7134C10.7964 12.7134 10.409 12.8185 10.1136 13.0285C9.82256 13.2386 9.67701 13.5151 9.67701 13.858C9.67701 14.1409 9.79473 14.3702 10.0302 14.546C10.2699 14.7218 10.6573 14.8718 11.1924 14.9961L12.3161 15.234C13.245 15.4312 13.9213 15.7398 14.3451 16.1599C14.7689 16.5757 14.9808 17.1373 14.9808 17.8446C14.9808 18.7448 14.6426 19.4607 13.9663 19.9922C13.2899 20.5195 12.376 20.7831 11.2245 20.7831C10.1072 20.7831 9.21683 20.5345 8.55332 20.0372C7.89409 19.5357 7.5495 18.8498 7.51953 17.9796Z" fill="url(#paint8_linear_859_67804)"/>
<path d="M20.2718 20.7831C18.9191 20.7831 17.8489 20.3566 17.0612 19.5035C16.2779 18.6462 15.8862 17.4717 15.8862 15.9799C15.8862 14.4924 16.28 13.3222 17.0677 12.4691C17.8553 11.6118 18.9234 11.1831 20.2718 11.1831C21.0081 11.1831 21.6759 11.3289 22.2752 11.6203C22.8787 11.9118 23.3625 12.3234 23.7263 12.8549C24.0902 13.3865 24.2957 13.993 24.3427 14.6746H22.4549C22.365 14.1045 22.1189 13.6479 21.7165 13.305C21.3184 12.9621 20.8368 12.7906 20.2718 12.7906C19.5398 12.7906 18.9555 13.0778 18.5188 13.6522C18.0822 14.2266 17.8639 15.0004 17.8639 15.9735C17.8639 16.9637 18.0801 17.746 18.5124 18.3204C18.9448 18.8905 19.5334 19.1756 20.2782 19.1756C20.8518 19.1756 21.3334 19.017 21.7229 18.6998C22.1125 18.3826 22.3586 17.9496 22.4614 17.4009H24.3492C24.2421 18.434 23.8205 19.2571 23.0842 19.87C22.3479 20.4788 21.4104 20.7831 20.2718 20.7831Z" fill="url(#paint9_linear_859_67804)"/>
<path d="M7.51953 17.9796H9.38806C9.43087 18.3568 9.62992 18.6633 9.98522 18.8991C10.3448 19.1306 10.7836 19.2463 11.3015 19.2463C11.8152 19.2463 12.2326 19.137 12.5537 18.9184C12.879 18.6955 13.0417 18.4126 13.0417 18.0696C13.0417 17.7696 12.9218 17.5274 12.6821 17.3431C12.4424 17.1587 12.0421 17.0044 11.4813 16.8801L10.2742 16.6165C8.57473 16.2521 7.72501 15.3883 7.72501 14.0252C7.72501 13.1764 8.05462 12.4905 8.71385 11.9676C9.37736 11.4446 10.2292 11.1831 11.2694 11.1831C12.3396 11.1831 13.1936 11.4382 13.8314 11.9483C14.4693 12.4541 14.7967 13.1293 14.8139 13.9737H12.9967C12.9667 13.5836 12.7934 13.2771 12.4766 13.0542C12.1641 12.827 11.7639 12.7134 11.2759 12.7134C10.7964 12.7134 10.409 12.8185 10.1136 13.0285C9.82256 13.2386 9.67701 13.5151 9.67701 13.858C9.67701 14.1409 9.79473 14.3702 10.0302 14.546C10.2699 14.7218 10.6573 14.8718 11.1924 14.9961L12.3161 15.234C13.245 15.4312 13.9213 15.7398 14.3451 16.1599C14.7689 16.5757 14.9808 17.1373 14.9808 17.8446C14.9808 18.7448 14.6426 19.4607 13.9663 19.9922C13.2899 20.5195 12.376 20.7831 11.2245 20.7831C10.1072 20.7831 9.21683 20.5345 8.55332 20.0372C7.89409 19.5357 7.5495 18.8498 7.51953 17.9796Z" stroke="url(#paint10_linear_859_67804)" stroke-width="0.337983"/>
<path d="M20.2718 20.7831C18.9191 20.7831 17.8489 20.3566 17.0612 19.5035C16.2779 18.6462 15.8862 17.4717 15.8862 15.9799C15.8862 14.4924 16.28 13.3222 17.0677 12.4691C17.8553 11.6118 18.9234 11.1831 20.2718 11.1831C21.0081 11.1831 21.6759 11.3289 22.2752 11.6203C22.8787 11.9118 23.3625 12.3234 23.7263 12.8549C24.0902 13.3865 24.2957 13.993 24.3427 14.6746H22.4549C22.365 14.1045 22.1189 13.6479 21.7165 13.305C21.3184 12.9621 20.8368 12.7906 20.2718 12.7906C19.5398 12.7906 18.9555 13.0778 18.5188 13.6522C18.0822 14.2266 17.8639 15.0004 17.8639 15.9735C17.8639 16.9637 18.0801 17.746 18.5124 18.3204C18.9448 18.8905 19.5334 19.1756 20.2782 19.1756C20.8518 19.1756 21.3334 19.017 21.7229 18.6998C22.1125 18.3826 22.3586 17.9496 22.4614 17.4009H24.3492C24.2421 18.434 23.8205 19.2571 23.0842 19.87C22.3479 20.4788 21.4104 20.7831 20.2718 20.7831Z" stroke="url(#paint11_linear_859_67804)" stroke-width="0.337983"/>
</g>
<defs>
<filter id="filter0_f_859_67804" x="3.2767" y="3.22177" width="25.28" height="25.3651" filterUnits="userSpaceOnUse" color-interpolation-filters="sRGB">
<feFlood flood-opacity="0" result="BackgroundImageFix"/>
<feBlend mode="normal" in="SourceGraphic" in2="BackgroundImageFix" result="shape"/>
<feGaussianBlur stdDeviation="0.0177778" result="effect1_foregroundBlur_859_67804"/>
</filter>
<filter id="filter1_i_859_67804" x="4.43799" y="4.34131" width="23.1111" height="23.1709" filterUnits="userSpaceOnUse" color-interpolation-filters="sRGB">
<feFlood flood-opacity="0" result="BackgroundImageFix"/>
<feBlend mode="normal" in="SourceGraphic" in2="BackgroundImageFix" result="shape"/>
<feColorMatrix in="SourceAlpha" type="matrix" values="0 0 0 0 0 0 0 0 0 0 0 0 0 0 0 0 0 0 127 0" result="hardAlpha"/>
<feOffset/>
<feGaussianBlur stdDeviation="0.796935"/>
<feComposite in2="hardAlpha" operator="arithmetic" k2="-1" k3="1"/>
<feColorMatrix type="matrix" values="0 0 0 0 0.458333 0 0 0 0 0.256743 0 0 0 0 0.0706597 0 0 0 1 0"/>
<feBlend mode="normal" in2="shape" result="effect1_innerShadow_859_67804"/>
</filter>
<filter id="filter2_d_859_67804" x="6.43932" y="10.4946" width="19.0883" height="11.8343" filterUnits="userSpaceOnUse" color-interpolation-filters="sRGB">
<feFlood flood-opacity="0" result="BackgroundImageFix"/>
<feColorMatrix in="SourceAlpha" type="matrix" values="0 0 0 0 0 0 0 0 0 0 0 0 0 0 0 0 0 0 127 0" result="hardAlpha"/>
<feOffset dx="0.0428615" dy="0.428615"/>
<feGaussianBlur stdDeviation="0.474074"/>
<feColorMatrix type="matrix" values="0 0 0 0 0.633333 0 0 0 0 0.392983 0 0 0 0 0.110833 0 0 0 0.44 0"/>
<feBlend mode="normal" in2="BackgroundImageFix" result="effect1_dropShadow_859_67804"/>
<feBlend mode="normal" in="SourceGraphic" in2="effect1_dropShadow_859_67804" result="shape"/>
</filter>
<linearGradient id="paint0_linear_859_67804" x1="9.71204" y1="3.15927" x2="22.57" y2="29.2889" gradientUnits="userSpaceOnUse">
<stop stop-color="#FFF5DE"/>
<stop offset="1" stop-color="#CFA365"/>
</linearGradient>
<linearGradient id="paint1_linear_859_67804" x1="9.59374" y1="5.30257" x2="20.6925" y2="26.2529" gradientUnits="userSpaceOnUse">
<stop stop-color="#D2A86C"/>
<stop offset="1" stop-color="#F8E6C0"/>
</linearGradient>
<linearGradient id="paint2_linear_859_67804" x1="10.8382" y1="4.54945" x2="22.8" y2="26.5621" gradientUnits="userSpaceOnUse">
<stop stop-color="#FFF6E7"/>
<stop offset="1" stop-color="#FFF8EC"/>
</linearGradient>
<radialGradient id="paint3_radial_859_67804" cx="0" cy="0" r="1" gradientUnits="userSpaceOnUse" gradientTransform="translate(15.9935 15.9268) rotate(90) scale(13.1153 11.5556)">
<stop stop-color="#FFE4BA"/>
<stop offset="1" stop-color="#DEA44D"/>
</radialGradient>
<linearGradient id="paint4_linear_859_67804" x1="15.9946" y1="2.29199" x2="15.9946" y2="29.5601" gradientUnits="userSpaceOnUse">
<stop stop-color="white"/>
<stop offset="1" stop-color="#F2EDED" stop-opacity="0"/>
</linearGradient>
<linearGradient id="paint5_linear_859_67804" x1="1.72705" y1="4.7591" x2="15.205" y2="28.6384" gradientUnits="userSpaceOnUse">
<stop stop-color="white"/>
<stop offset="1" stop-color="#F2EDED" stop-opacity="0"/>
</linearGradient>
<linearGradient id="paint6_linear_859_67804" x1="29.2213" y1="4.75946" x2="15.7433" y2="28.6387" gradientUnits="userSpaceOnUse">
<stop stop-color="white"/>
<stop offset="1" stop-color="#F2EDED" stop-opacity="0"/>
</linearGradient>
<linearGradient id="paint7_linear_859_67804" x1="15.9936" y1="20.7307" x2="15.927" y2="28.132" gradientUnits="userSpaceOnUse">
<stop stop-color="white" stop-opacity="0"/>
<stop offset="1" stop-color="#FFF1E3"/>
</linearGradient>
<linearGradient id="paint8_linear_859_67804" x1="14.6014" y1="8.77669" x2="24.4154" y2="14.0055" gradientUnits="userSpaceOnUse">
<stop offset="0.168737" stop-color="#FDF2D9"/>
<stop offset="0.304755" stop-color="#FFF7E3"/>
<stop offset="0.451944" stop-color="#FFFCF4"/>
<stop offset="0.581036" stop-color="#FFF1D9"/>
<stop offset="0.705947" stop-color="#F3E0BF"/>
<stop offset="0.940592" stop-color="#FFF5DE"/>
</linearGradient>
<linearGradient id="paint9_linear_859_67804" x1="14.6014" y1="8.77669" x2="24.4154" y2="14.0055" gradientUnits="userSpaceOnUse">
<stop offset="0.168737" stop-color="#FDF2D9"/>
<stop offset="0.304755" stop-color="#FFF7E3"/>
<stop offset="0.451944" stop-color="#FFFCF4"/>
<stop offset="0.581036" stop-color="#FFF1D9"/>
<stop offset="0.705947" stop-color="#F3E0BF"/>
<stop offset="0.940592" stop-color="#FFF5DE"/>
</linearGradient>
<linearGradient id="paint10_linear_859_67804" x1="24.992" y1="10.0554" x2="5.91766" y2="21.434" gradientUnits="userSpaceOnUse">
<stop stop-color="#EAD1A8"/>
<stop offset="1" stop-color="#D3A96D"/>
</linearGradient>
<linearGradient id="paint11_linear_859_67804" x1="24.992" y1="10.0554" x2="5.91766" y2="21.434" gradientUnits="userSpaceOnUse">
<stop stop-color="#EAD1A8"/>
<stop offset="1" stop-color="#D3A96D"/>
</linearGradient>
</defs>
</svg>